<svg width="40" height="40" viewBox="0 0 40 40" fill="none" xmlns="http://www.w3.org/2000/svg">
<path d="M3.85714 5.28571C3.09938 5.28571 2.37266 5.58673 1.83684 6.12255C1.30102 6.65837 1 7.3851 1 8.14286V35.2857C1 36.0435 1.30102 36.7702 1.83684 37.306C2.37266 37.8418 3.09938 38.1429 3.85714 38.1429H35.2857C36.0435 38.1429 36.7702 37.8418 37.306 37.306C37.8418 36.7702 38.1429 36.0435 38.1429 35.2857V8.14286C38.1429 7.3851 37.8418 6.65837 37.306 6.12255C36.7702 5.58673 36.0435 5.28571 35.2857 5.28571H29.5714M9.57143 1V9.57143M29.5714 1V9.57143M9.57143 5.28571H23.8571" stroke="black" stroke-width="2" stroke-linecap="round" stroke-linejoin="round"/>
<path d="M17.2515 12.6057C16.8726 12.6057 16.5092 12.7562 16.2413 13.0241C15.9734 13.292 15.8229 13.6554 15.8229 14.0343V18.0514H11.8C11.4212 18.0514 11.0578 18.2019 10.7899 18.4698C10.522 18.7378 10.3715 19.1011 10.3715 19.48V24.1229C10.3715 24.5017 10.522 24.8651 10.7899 25.133C11.0578 25.4009 11.4212 25.5514 11.8 25.5514H15.82V29.5686C15.82 29.9475 15.9705 30.3108 16.2384 30.5787C16.5064 30.8466 16.8697 30.9971 17.2486 30.9971H21.8915C22.0791 30.9971 22.2648 30.9602 22.4382 30.8884C22.6115 30.8166 22.769 30.7114 22.9016 30.5787C23.0343 30.4461 23.1395 30.2886 23.2113 30.1153C23.2831 29.9419 23.32 29.7562 23.32 29.5686V25.5514H27.3372C27.7161 25.5514 28.0794 25.4009 28.3473 25.133C28.6152 24.8651 28.7657 24.5017 28.7657 24.1229V19.48C28.7657 19.1011 28.6152 18.7378 28.3473 18.4698C28.0794 18.2019 27.7161 18.0514 27.3372 18.0514H23.3229V14.0343C23.3229 13.6554 23.1724 13.292 22.9045 13.0241C22.6366 12.7562 22.2732 12.6057 21.8943 12.6057H17.2515Z" stroke="black" stroke-width="2" stroke-linecap="round" stroke-linejoin="round"/>
</svg>
