<svg width="37" height="33" viewBox="0 0 37 33" fill="none" xmlns="http://www.w3.org/2000/svg">
<path d="M3.46537 12.502L2.07717 14.0507L0.688965 12.502L2.07717 10.9532L3.46537 12.502ZM36.845 30.0271C36.845 30.608 36.6381 31.1652 36.2699 31.5761C35.9017 31.9869 35.4023 32.2177 34.8815 32.2177C34.3607 32.2177 33.8613 31.9869 33.4931 31.5761C33.1249 31.1652 32.918 30.608 32.918 30.0271H36.845ZM11.8947 25.0039L2.07717 14.0507L4.85357 10.9532L14.6711 21.9064L11.8947 25.0039ZM2.07717 10.9532L11.8947 0L14.6711 3.09756L4.85357 14.0507L2.07717 10.9532ZM3.46537 10.3113H23.1004V14.6926H3.46537V10.3113ZM36.845 25.6458V30.0271H32.918V25.6458H36.845ZM23.1004 10.3113C26.7457 10.3113 30.2417 11.9269 32.8193 14.8027C35.3969 17.6784 36.845 21.5788 36.845 25.6458H32.918C32.918 22.7408 31.8836 19.9548 30.0425 17.9007C28.2013 15.8466 25.7042 14.6926 23.1004 14.6926V10.3113Z" fill="black"/>
</svg>
