<svg width="36" height="38" viewBox="0 0 36 38" fill="none" xmlns="http://www.w3.org/2000/svg">
<path d="M33.9594 8.19975C33.4949 7.61292 32.9202 7.1328 32.2713 6.78929C31.6224 6.44579 30.9131 6.24625 30.1875 6.20311C30.1389 5.35547 29.9066 4.53066 29.5084 3.79158C29.1101 3.05249 28.5564 2.41862 27.8895 1.9383C27.2226 1.45798 26.46 1.14389 25.6599 1.01996C24.8598 0.896029 24.0434 0.965539 23.2727 1.22319C22.5021 1.48084 21.7977 1.91983 21.2132 2.50669C20.6286 3.09355 20.1794 3.8128 19.8998 4.6096C19.6201 5.4064 19.5175 6.25972 19.5995 7.10451C19.6816 7.94931 19.9463 8.76327 20.3734 9.48436C20.4146 9.54736 20.4335 9.62345 20.4269 9.69952C20.4204 9.77559 20.3888 9.84687 20.3375 9.90108L9.3375 21.4609C9.28488 21.5135 9.21688 21.5458 9.14454 21.5527C9.07221 21.5595 8.99979 21.5405 8.93906 21.4987C8.25255 21.0479 7.477 20.7679 6.67166 20.68C5.86632 20.5921 5.0525 20.6987 4.29237 20.9915C3.53225 21.2844 2.84594 21.7558 2.28588 22.3698C1.72581 22.9838 1.30682 23.724 1.0609 24.534C0.81498 25.344 0.748646 26.2023 0.866966 27.0434C0.985286 27.8844 1.28513 28.6859 1.74358 29.3867C2.20204 30.0874 2.80698 30.6689 3.51219 31.0866C4.21739 31.5043 5.0042 31.7473 5.8125 31.7969C5.86111 32.6445 6.09338 33.4693 6.49163 34.2084C6.88987 34.9475 7.44356 35.5814 8.1105 36.0617C8.77744 36.542 9.54001 36.8561 10.3401 36.98C11.1402 37.1039 11.9566 37.0344 12.7273 36.7768C13.4979 36.5191 14.2023 36.0802 14.7868 35.4933C15.3714 34.9064 15.8206 34.1872 16.1002 33.3904C16.3799 32.5936 16.4825 31.7403 16.4005 30.8955C16.3184 30.0507 16.0537 29.2367 15.6266 28.5156C15.5854 28.4526 15.5665 28.3765 15.5731 28.3005C15.5796 28.2244 15.6113 28.1531 15.6625 28.0989L26.6625 16.5489C26.7141 16.4951 26.782 16.4619 26.8545 16.455C26.9269 16.4481 26.9994 16.468 27.0594 16.5112C28.1315 17.2209 29.4099 17.5048 30.6638 17.3117C31.9178 17.1185 33.0646 16.461 33.8974 15.4579C34.7302 14.4548 35.194 13.1721 35.205 11.8414C35.2161 10.5107 34.7738 9.21966 33.9578 8.20139L33.9594 8.19975ZM32.4688 14.1569C31.9308 14.8032 31.1912 15.227 30.3825 15.3524C29.5739 15.4778 28.7491 15.2965 28.0563 14.841C27.6364 14.5613 27.1384 14.44 26.6442 14.4973C26.15 14.5546 25.6891 14.7869 25.3375 15.156L14.3391 26.7109C13.9875 27.0801 13.7663 27.564 13.7117 28.083C13.6572 28.6019 13.7726 29.1248 14.0391 29.5656C14.3324 30.0598 14.5075 30.6211 14.5494 31.2017C14.5914 31.7823 14.4989 32.365 14.2799 32.8999C14.061 33.4349 13.722 33.9063 13.2919 34.2739C12.8619 34.6415 12.3535 34.8944 11.8102 35.011C11.2669 35.1276 10.7048 35.1044 10.1718 34.9435C9.63885 34.7826 9.15089 34.4887 8.74956 34.0869C8.34822 33.6851 8.04544 33.1872 7.86703 32.6359C7.68862 32.0846 7.63989 31.4961 7.725 30.9208C7.74599 30.7803 7.73775 30.6367 7.70083 30.4999C7.66391 30.363 7.5992 30.2362 7.51114 30.1282C7.42309 30.0201 7.31378 29.9334 7.19075 29.874C7.06771 29.8145 6.93388 29.7838 6.79844 29.7838C6.74982 29.7844 6.70128 29.7882 6.65313 29.7953C6.10515 29.8847 5.54472 29.8335 5.01965 29.6462C4.49459 29.4588 4.02048 29.1409 3.63779 28.7195C3.2551 28.2981 2.97518 27.7858 2.82193 27.2262C2.66868 26.6666 2.64664 26.0763 2.75769 25.5059C2.86875 24.9354 3.1096 24.4016 3.4597 23.95C3.80979 23.4984 4.25874 23.1425 4.76823 22.9126C5.27771 22.6827 5.83261 22.5856 6.38557 22.6297C6.93852 22.6737 7.47313 22.8576 7.94375 23.1655C8.36363 23.4428 8.86077 23.5619 9.35363 23.5035C9.84649 23.4451 10.3058 23.2125 10.6563 22.844L21.6609 11.2891C22.0125 10.9199 22.2337 10.4359 22.2883 9.91701C22.3428 9.3981 22.2274 8.87516 21.9609 8.43436C21.6676 7.94021 21.4925 7.37887 21.4506 6.79827C21.4086 6.21766 21.5011 5.63502 21.7201 5.10006C21.939 4.5651 22.278 4.09371 22.7081 3.72611C23.1381 3.35851 23.6465 3.10561 24.1898 2.989C24.7331 2.87239 25.2952 2.89553 25.8282 3.05645C26.3611 3.21736 26.8491 3.51127 27.2504 3.9131C27.6518 4.31493 27.9546 4.81274 28.133 5.36406C28.3114 5.91538 28.3601 6.50383 28.275 7.07921C28.252 7.2325 28.2639 7.38934 28.3096 7.53691C28.3554 7.68447 28.4337 7.8186 28.5382 7.92833C28.6427 8.03806 28.7704 8.1203 28.911 8.16832C29.0515 8.21635 29.2009 8.22881 29.3469 8.20467C30.0453 8.08762 30.7611 8.19961 31.3966 8.52536C32.0322 8.85112 32.5566 9.37478 32.8983 10.025C33.24 10.6751 33.3825 11.4201 33.3061 12.1584C33.2298 12.8967 32.9385 13.5923 32.4719 14.1503L32.4688 14.1569Z" fill="black"/>
</svg>
