<svg width="32" height="32" viewBox="0 0 32 32" fill="none" xmlns="http://www.w3.org/2000/svg">
<path d="M27.5385 3.30768H4.46154C2.54978 3.30768 1 4.85746 1 6.76922V27.5384C1 29.4502 2.54978 31 4.46154 31H27.5385C29.4502 31 31 29.4502 31 27.5384V6.76922C31 4.85746 29.4502 3.30768 27.5385 3.30768Z" stroke="black" stroke-width="1.875" stroke-linejoin="round"/>
<path d="M18.8846 16C19.8405 16 20.6153 15.2251 20.6153 14.2692C20.6153 13.3133 19.8405 12.5385 18.8846 12.5385C17.9287 12.5385 17.1538 13.3133 17.1538 14.2692C17.1538 15.2251 17.9287 16 18.8846 16Z" fill="black"/>
<path d="M24.6539 16C25.6097 16 26.3846 15.2251 26.3846 14.2692C26.3846 13.3133 25.6097 12.5385 24.6539 12.5385C23.698 12.5385 22.9231 13.3133 22.9231 14.2692C22.9231 15.2251 23.698 16 24.6539 16Z" fill="black"/>
<path d="M18.8846 21.7692C19.8405 21.7692 20.6153 20.9943 20.6153 20.0384C20.6153 19.0826 19.8405 18.3077 18.8846 18.3077C17.9287 18.3077 17.1538 19.0826 17.1538 20.0384C17.1538 20.9943 17.9287 21.7692 18.8846 21.7692Z" fill="black"/>
<path d="M24.6539 21.7692C25.6097 21.7692 26.3846 20.9943 26.3846 20.0384C26.3846 19.0826 25.6097 18.3077 24.6539 18.3077C23.698 18.3077 22.9231 19.0826 22.9231 20.0384C22.9231 20.9943 23.698 21.7692 24.6539 21.7692Z" fill="black"/>
<path d="M7.34613 21.7692C8.302 21.7692 9.07689 20.9943 9.07689 20.0384C9.07689 19.0826 8.302 18.3077 7.34613 18.3077C6.39025 18.3077 5.61536 19.0826 5.61536 20.0384C5.61536 20.9943 6.39025 21.7692 7.34613 21.7692Z" fill="black"/>
<path d="M13.1154 21.7692C14.0713 21.7692 14.8462 20.9943 14.8462 20.0384C14.8462 19.0826 14.0713 18.3077 13.1154 18.3077C12.1595 18.3077 11.3846 19.0826 11.3846 20.0384C11.3846 20.9943 12.1595 21.7692 13.1154 21.7692Z" fill="black"/>
<path d="M7.34613 27.5385C8.302 27.5385 9.07689 26.7636 9.07689 25.8077C9.07689 24.8518 8.302 24.0769 7.34613 24.0769C6.39025 24.0769 5.61536 24.8518 5.61536 25.8077C5.61536 26.7636 6.39025 27.5385 7.34613 27.5385Z" fill="black"/>
<path d="M13.1154 27.5385C14.0713 27.5385 14.8462 26.7636 14.8462 25.8077C14.8462 24.8518 14.0713 24.0769 13.1154 24.0769C12.1595 24.0769 11.3846 24.8518 11.3846 25.8077C11.3846 26.7636 12.1595 27.5385 13.1154 27.5385Z" fill="black"/>
<path d="M18.8846 27.5385C19.8405 27.5385 20.6153 26.7636 20.6153 25.8077C20.6153 24.8518 19.8405 24.0769 18.8846 24.0769C17.9287 24.0769 17.1538 24.8518 17.1538 25.8077C17.1538 26.7636 17.9287 27.5385 18.8846 27.5385Z" fill="black"/>
<path d="M6.76929 1V3.30769M25.2308 1V3.30769" stroke="black" stroke-width="1.875" stroke-linecap="round" stroke-linejoin="round"/>
<path d="M31 9.07693H1" stroke="black" stroke-width="1.875" stroke-linejoin="round"/>
</svg>
