<svg width="100" height="100" viewBox="6 -12 15 50" fill="none" xmlns="http://www.w3.org/2000/svg">
<circle cx="13" cy="14" r="18" fill="#D9D9D9"/>
<path d="M5.29049 26.7H20.6876C22.2588 26.7 23.533 25.4328 23.533 23.8686V11.3121C26.2043 11.2065 27.8021 8.25959 26.3752 5.96939L25.5423 4.63289C25.227 4.12645 24.7869 3.70848 24.2636 3.41857C23.7404 3.12866 23.1514 2.97642 22.5525 2.97629H20.1716V1.92689C20.1716 1.71324 20.1292 1.50168 20.047 1.3043C19.9648 1.10692 19.8443 0.927567 19.6924 0.776496C19.5405 0.625424 19.3601 0.505588 19.1617 0.423828C18.9632 0.342069 18.7505 0.299988 18.5356 0.299988C18.0029 0.300204 17.4754 0.404768 16.9833 0.607708C16.4912 0.810648 16.0442 1.10799 15.6676 1.48276C15.2911 1.85753 14.9924 2.30238 14.7888 2.79192C14.5851 3.28146 14.4804 3.8061 14.4806 4.33589V10.0383C12.3602 10.2462 10.7591 11.2428 9.58276 12.6486C8.28529 14.1996 7.52041 16.2208 7.0658 18.1629C6.60787 20.1132 6.44693 22.0536 6.39715 23.4957C6.37724 24.1128 6.37724 24.6441 6.38388 25.05H5.29049C4.65305 25.05 4.0295 24.8648 3.4965 24.5171C2.96351 24.1694 2.54432 23.6744 2.29048 23.0929C2.03664 22.5114 1.95922 21.8688 2.06774 21.2442C2.17626 20.6195 2.46598 20.04 2.90129 19.5769L4.42772 17.9484C5.47974 16.8263 6.05279 15.3419 6.02618 13.8079C5.99956 12.274 5.37536 10.8102 4.28503 9.72479L2.78681 8.23484C2.71028 8.15604 2.61874 8.09319 2.51753 8.04995C2.41632 8.00672 2.30746 7.98396 2.19731 7.98301C2.08715 7.98205 1.97792 8.00293 1.87596 8.04441C1.77401 8.08589 1.68139 8.14715 1.60349 8.22461C1.5256 8.30207 1.464 8.39419 1.42229 8.49558C1.38058 8.59696 1.35959 8.7056 1.36055 8.81514C1.3615 8.92469 1.38439 9.03294 1.42787 9.1336C1.47134 9.23425 1.53454 9.32528 1.61378 9.40139L3.112 10.8913C3.89913 11.6739 4.34983 12.7299 4.36903 13.8365C4.38822 14.9432 3.9744 16.014 3.21487 16.8231L1.68844 18.4516C1.03426 19.1503 0.599289 20.0236 0.436855 20.9645C0.274421 21.9054 0.391582 22.873 0.773974 23.7486C1.15637 24.6242 1.78737 25.3699 2.58963 25.8941C3.39189 26.4184 4.33053 26.6985 5.29049 26.7ZM18.514 1.94999V3.80129C18.514 4.02009 18.6015 4.22993 18.757 4.38465C18.9126 4.53937 19.1236 4.62629 19.3436 4.62629H22.5525C23.1962 4.62629 23.7935 4.95629 24.132 5.50079L24.9665 6.83894C25.1412 7.11924 25.2374 7.44086 25.2452 7.77053C25.253 8.10019 25.1721 8.42595 25.0109 8.71412C24.8497 9.00229 24.614 9.2424 24.3283 9.40964C24.0425 9.57688 23.717 9.66517 23.3854 9.66539H22.7051C22.4851 9.66539 22.2741 9.75231 22.1185 9.90703C21.9629 10.0617 21.8755 10.2716 21.8755 10.4904V23.8686C21.8755 24.5203 21.3446 25.05 20.6876 25.05H19.4996V23.8686C19.5 22.5858 18.9882 21.3554 18.0765 20.4478C17.1649 19.5403 15.9281 19.03 14.6382 19.0291H12.9558C12.7358 19.0291 12.5248 19.1161 12.3692 19.2708C12.2137 19.4255 12.1263 19.6353 12.1263 19.8541C12.1263 20.0729 12.2137 20.2828 12.3692 20.4375C12.5248 20.5922 12.7358 20.6791 12.9558 20.6791H14.6366C16.4069 20.6791 17.8421 22.1064 17.8421 23.8686V25.05H8.04305C8.03475 24.6639 8.03475 24.1524 8.05466 23.5501C8.10112 22.1707 8.25376 20.3491 8.68017 18.5374C9.10657 16.7158 9.79181 14.9751 10.857 13.7029C11.8973 12.4638 13.3092 11.6487 15.3102 11.6487C15.5302 11.6487 15.7412 11.5618 15.8968 11.4071C16.0524 11.2523 16.1398 11.0425 16.1398 10.8237V4.33589C16.1398 3.02579 17.2016 1.96154 18.514 1.94999Z" fill="black"/>
</svg>
