<svg width="24" height="24" viewBox="0 0 24 24" fill="none" xmlns="http://www.w3.org/2000/svg">
<path opacity="0.2" d="M14.9999 15L10.2421 19.7578C9.44636 20.5533 8.36725 21.0003 7.24207 21.0003C6.11689 21.0003 5.03779 20.5533 4.24207 19.7578C3.44654 18.9621 2.99963 17.883 2.99963 16.7578C2.99963 15.6326 3.44654 14.5535 4.24207 13.7578L8.99989 9L14.9999 15Z" fill="black"/>
<path d="M20.2903 3.71249C19.3537 2.77606 18.0836 2.25 16.7592 2.25C15.4348 2.25 14.1646 2.77606 13.2281 3.71249L3.71244 13.2272C2.79565 14.1676 2.28627 15.4313 2.29466 16.7446C2.30304 18.0579 2.82852 19.315 3.75724 20.2436C4.68597 21.1722 5.94316 21.6975 7.25646 21.7057C8.56977 21.7139 9.83343 21.2044 10.7737 20.2875L20.2903 10.7728C21.225 9.83572 21.7499 8.56619 21.7499 7.24264C21.7499 5.91909 21.225 4.64956 20.2903 3.71249ZM9.71338 19.2272C9.05834 19.8823 8.16986 20.2505 7.2434 20.2505C6.31694 20.2506 5.42839 19.8827 4.77322 19.2276C4.11806 18.5726 3.74994 17.6841 3.74985 16.7577C3.74976 15.8312 4.11771 14.9427 4.77275 14.2875L8.99994 10.0603L13.9406 15L9.71338 19.2272ZM19.229 9.71248L14.9999 13.9397L10.0612 8.99999L14.2893 4.7728C14.947 4.13035 15.8314 3.77307 16.7507 3.77844C17.6701 3.78381 18.5502 4.1514 19.2003 4.80149C19.8504 5.45158 20.218 6.33175 20.2234 7.25109C20.2287 8.17044 19.8715 9.05484 19.229 9.71248ZM17.7824 7.71936C17.8522 7.78901 17.9075 7.87173 17.9452 7.96278C17.983 8.05383 18.0024 8.15142 18.0024 8.24998C18.0024 8.34855 17.983 8.44614 17.9452 8.53719C17.9075 8.62824 17.8522 8.71096 17.7824 8.78061L15.5324 11.0306C15.4628 11.1002 15.38 11.1554 15.289 11.1931C15.198 11.2308 15.1005 11.2501 15.002 11.2501C14.9035 11.25 14.8059 11.2306 14.7149 11.1928C14.6239 11.1551 14.5413 11.0998 14.4717 11.0301C14.402 10.9605 14.3468 10.8777 14.3092 10.7867C14.2715 10.6957 14.2522 10.5982 14.2522 10.4997C14.2522 10.4012 14.2717 10.3036 14.3094 10.2126C14.3472 10.1216 14.4024 10.039 14.4721 9.96936L16.7221 7.71936C16.8628 7.57881 17.0535 7.49986 17.2523 7.49986C17.4511 7.49986 17.6418 7.57881 17.7824 7.71936Z" fill="black"/>
</svg>
