<svg width="18" height="24" viewBox="0 0 18 24" fill="none" xmlns="http://www.w3.org/2000/svg">
<path d="M9.98336 15.93C12.0136 15.6756 13.8701 14.6614 15.1749 13.0937C16.4796 11.526 17.1346 9.52277 17.0065 7.49175C16.8783 5.46074 15.9767 3.55463 14.4851 2.16145C12.9935 0.768265 11.0241 -0.00726318 8.97781 -0.00726318C6.93149 -0.00726318 4.96209 0.768265 3.47051 2.16145C1.97893 3.55463 1.0773 5.46074 0.94915 7.49175C0.821004 9.52277 1.47598 11.526 2.78075 13.0937C4.08551 14.6614 5.94199 15.6756 7.97225 15.93V18H2.94447V20H7.97225V24H9.98336V20H15.0111V18H9.98336V15.93ZM2.94447 7.99999C2.94447 6.8133 3.29832 5.65326 3.96127 4.66657C4.62422 3.67987 5.5665 2.91084 6.66895 2.45671C7.7714 2.00259 8.9845 1.88377 10.1549 2.11528C11.3252 2.34679 12.4002 2.91824 13.244 3.75735C14.0878 4.59647 14.6624 5.66556 14.8952 6.82945C15.128 7.99333 15.0085 9.19973 14.5519 10.2961C14.0952 11.3924 13.3219 12.3295 12.3297 12.9888C11.3376 13.6481 10.1711 14 8.97781 14C7.37824 13.9981 5.84472 13.3654 4.71365 12.2406C3.58259 11.1158 2.94633 9.59072 2.94447 7.99999Z" fill="black"/>
</svg>
