<svg width="50" height="45" viewBox="0 0 50 45" fill="none" xmlns="http://www.w3.org/2000/svg">
<path d="M44.0909 11.4894C42.9222 11.4894 41.7797 11.8544 40.808 12.5382C39.8363 13.222 39.0789 14.194 38.6316 15.3312C38.1844 16.4683 38.0674 17.7197 38.2954 18.9269C38.5234 20.1341 39.0862 21.243 39.9126 22.1134C40.739 22.9837 41.7919 23.5764 42.9381 23.8166C44.0844 24.0567 45.2725 23.9335 46.3522 23.4624C47.432 22.9914 48.3548 22.1937 49.0041 21.1703C49.6534 20.1469 50 18.9436 50 17.7128C50 16.0622 49.3774 14.4793 48.2693 13.3121C47.1611 12.145 45.6581 11.4894 44.0909 11.4894ZM44.0909 21.0638C43.4616 21.0638 42.8464 20.8673 42.3232 20.4991C41.7999 20.1308 41.3921 19.6075 41.1513 18.9951C40.9105 18.3828 40.8475 17.709 40.9702 17.059C41.093 16.409 41.396 15.8118 41.841 15.3432C42.286 14.8745 42.853 14.5554 43.4702 14.4261C44.0874 14.2968 44.7271 14.3631 45.3085 14.6168C45.8899 14.8704 46.3869 15.2999 46.7365 15.851C47.0861 16.4021 47.2727 17.05 47.2727 17.7128C47.2727 18.6015 46.9375 19.4539 46.3408 20.0823C45.7441 20.7108 44.9348 21.0638 44.0909 21.0638ZM11.8182 17.7128C11.8182 16.4819 11.4716 15.2787 10.8223 14.2552C10.173 13.2318 9.25015 12.4341 8.1704 11.9631C7.09066 11.492 5.90254 11.3688 4.75629 11.6089C3.61004 11.8491 2.55714 12.4418 1.73074 13.3121C0.904334 14.1825 0.341548 15.2914 0.113544 16.4986C-0.114459 17.7058 0.00256032 18.9572 0.449805 20.0943C0.89705 21.2315 1.65443 22.2035 2.62618 22.8873C3.59792 23.5712 4.74039 23.9362 5.90909 23.9362C7.47628 23.9362 8.97928 23.2805 10.0875 22.1134C11.1956 20.9462 11.8182 19.3633 11.8182 17.7128ZM5.90909 21.0638C5.27979 21.0638 4.66462 20.8673 4.14137 20.4991C3.61812 20.1308 3.2103 19.6075 2.96948 18.9951C2.72865 18.3828 2.66564 17.709 2.78841 17.059C2.91118 16.409 3.21422 15.8118 3.65921 15.3432C4.10419 14.8745 4.67114 14.5554 5.28835 14.4261C5.90556 14.2968 6.54532 14.3631 7.12672 14.6168C7.70812 14.8704 8.20506 15.2999 8.55468 15.851C8.9043 16.4021 9.09091 17.05 9.09091 17.7128C9.09091 18.6015 8.75568 19.4539 8.15898 20.0823C7.56227 20.7108 6.75296 21.0638 5.90909 21.0638ZM16.8182 12.4468C17.9869 12.4468 19.1294 12.0818 20.1011 11.398C21.0728 10.7141 21.8302 9.74217 22.2775 8.60499C22.7247 7.46782 22.8417 6.2165 22.6137 5.00928C22.3857 3.80205 21.8229 2.69315 20.9965 1.82279C20.1701 0.952436 19.1172 0.359715 17.971 0.119584C16.8247 -0.120548 15.6366 0.00269651 14.5569 0.473731C13.4771 0.944765 12.5543 1.74243 11.905 2.76587C11.2557 3.7893 10.9091 4.99253 10.9091 6.2234C10.9091 7.87395 11.5317 9.4569 12.6398 10.624C13.748 11.7911 15.251 12.4468 16.8182 12.4468ZM16.8182 2.87234C17.4475 2.87234 18.0627 3.06888 18.5859 3.4371C19.1092 3.80532 19.517 4.32868 19.7578 4.94101C19.9986 5.55333 20.0616 6.22712 19.9389 6.87716C19.8161 7.5272 19.5131 8.12431 19.0681 8.59296C18.6231 9.06161 18.0561 9.38077 17.4389 9.51007C16.8217 9.63938 16.182 9.57301 15.6006 9.31938C15.0192 9.06574 14.5222 8.63623 14.1726 8.08515C13.823 7.53407 13.6364 6.88618 13.6364 6.2234C13.6364 5.33464 13.9716 4.48229 14.5683 3.85384C15.165 3.2254 15.9743 2.87234 16.8182 2.87234ZM33.1818 12.4468C34.3505 12.4468 35.493 12.0818 36.4647 11.398C37.4365 10.7141 38.1939 9.74217 38.6411 8.60499C39.0884 7.46782 39.2054 6.2165 38.9774 5.00928C38.7494 3.80205 38.1866 2.69315 37.3602 1.82279C36.5338 0.952436 35.4809 0.359715 34.3346 0.119584C33.1884 -0.120548 32.0003 0.00269651 30.9205 0.473731C29.8408 0.944765 28.9179 1.74243 28.2686 2.76587C27.6193 3.7893 27.2727 4.99253 27.2727 6.2234C27.2727 7.87395 27.8953 9.4569 29.0035 10.624C30.1116 11.7911 31.6146 12.4468 33.1818 12.4468ZM33.1818 2.87234C33.8111 2.87234 34.4263 3.06888 34.9495 3.4371C35.4728 3.80532 35.8806 4.32868 36.1214 4.94101C36.3623 5.55333 36.4253 6.22712 36.3025 6.87716C36.1797 7.5272 35.8767 8.12431 35.4317 8.59296C34.9867 9.06161 34.4198 9.38077 33.8026 9.51007C33.1853 9.63938 32.5456 9.57301 31.9642 9.31938C31.3828 9.06574 30.8859 8.63623 30.5362 8.08515C30.1866 7.53407 30 6.88618 30 6.2234C30 5.33464 30.3352 4.48229 30.9319 3.85384C31.5286 3.2254 32.338 2.87234 33.1818 2.87234ZM38.2159 27.9119C37.2406 27.3448 36.381 26.5809 35.6861 25.6638C34.9912 24.7467 34.4746 23.6944 34.1659 22.567C33.5889 20.4769 32.3834 18.6404 30.7305 17.3337C29.0777 16.027 27.0667 15.3205 25 15.3205C22.9333 15.3205 20.9223 16.027 19.2695 17.3337C17.6166 18.6404 16.4111 20.4769 15.8341 22.567C15.2131 24.8398 13.7604 26.7599 11.7955 27.9048C10.1053 28.8681 8.76846 30.3977 7.99664 32.2513C7.22482 34.1049 7.06209 36.1767 7.53421 38.1387C8.00633 40.1007 9.08632 41.8408 10.6032 43.0836C12.1201 44.3263 13.9873 45.0007 15.9091 45C17.0618 45.0015 18.2029 44.7572 19.2636 44.2819C22.9328 42.689 27.0513 42.689 30.7205 44.2819C31.7862 44.7589 32.9329 45.0032 34.0909 45C36.0114 45.0004 37.8772 44.3267 39.3935 43.0853C40.9097 41.8439 41.9898 40.1057 42.463 38.1454C42.9362 36.1851 42.7755 34.1147 42.0063 32.2613C41.2372 30.408 39.9034 28.8776 38.2159 27.9119ZM34.0909 42.1276C33.2934 42.1287 32.504 41.9594 31.7705 41.6298C27.4293 39.742 22.5548 39.742 18.2136 41.6298C16.8165 42.2429 15.2493 42.268 13.8351 41.7C12.4209 41.132 11.2676 40.0141 10.613 38.5769C9.95834 37.1396 9.8523 35.4926 10.3167 33.9755C10.7812 32.4583 11.7807 31.1867 13.1091 30.4229C15.7079 28.9097 17.6298 26.3716 18.4523 23.3665C18.864 21.873 19.7251 20.5606 20.9058 19.6268C22.0866 18.6929 23.5234 18.188 25 18.188C26.4766 18.188 27.9134 18.6929 29.0942 19.6268C30.275 20.5606 31.136 21.873 31.5477 23.3665C31.9559 24.8566 32.6392 26.2473 33.5584 27.459C34.4776 28.6706 35.6147 29.6794 36.9045 30.4276C38.0625 31.0859 38.9788 32.1324 39.508 33.4013C40.0372 34.6701 40.1492 36.0887 39.8261 37.4322C39.503 38.7757 38.7634 39.9671 37.7245 40.8177C36.6856 41.6683 35.4068 42.1293 34.0909 42.1276Z" fill="black"/>
</svg>
