<svg width="16" height="24" viewBox="0 0 16 24" fill="none" xmlns="http://www.w3.org/2000/svg">
<path d="M8.48461 3.687C8.54476 3.59153 8.59177 3.47923 8.62299 3.3565C8.6542 3.23377 8.66899 3.10302 8.66651 2.97172C8.66403 2.84042 8.64434 2.71113 8.60855 2.59125C8.57277 2.47136 8.52159 2.36322 8.45794 2.273C8.3943 2.18279 8.31942 2.11226 8.23761 2.06544C8.15579 2.01863 8.06862 1.99644 7.98109 2.00016C7.89355 2.00387 7.80736 2.03341 7.72744 2.08709C7.64751 2.14077 7.57542 2.21753 7.51528 2.313L1.84861 11.313C1.73159 11.4987 1.66638 11.7445 1.66638 12C1.66638 12.2555 1.73159 12.5013 1.84861 12.687L7.51528 21.688C7.57502 21.7856 7.6471 21.8643 7.72732 21.9198C7.80754 21.9752 7.8943 22.0062 7.98256 22.0109C8.07082 22.0156 8.15883 21.9939 8.24147 21.9472C8.32411 21.9004 8.39973 21.8295 8.46394 21.7386C8.52815 21.6476 8.57968 21.5384 8.61552 21.4173C8.65137 21.2963 8.67082 21.1657 8.67274 21.0333C8.67466 20.9008 8.65902 20.7691 8.62673 20.6458C8.59443 20.5225 8.54612 20.4101 8.48461 20.315L3.24994 12L8.48461 3.687Z" fill="black"/>
</svg>
