<svg width="70" height="70" viewBox="-2 -3 27 35" fill="none" xmlns="http://www.w3.org/2000/svg">
    <circle cx="11.5" cy="14.5" r="17" fill="#D9D9D9"/>
<path d="M11.5 19.5417C10.7707 19.5417 10.0712 19.2871 9.55546 18.8338C9.03973 18.3806 8.75 17.7659 8.75 17.125C8.75 15.7837 9.97375 14.7083 11.5 14.7083C12.2293 14.7083 12.9288 14.9629 13.4445 15.4162C13.9603 15.8694 14.25 16.4841 14.25 17.125C14.25 17.7659 13.9603 18.3806 13.4445 18.8338C12.9288 19.2871 12.2293 19.5417 11.5 19.5417ZM19.75 23.1667V11.0833H3.25V23.1667H19.75ZM19.75 8.66666C20.4793 8.66666 21.1788 8.92128 21.6945 9.37449C22.2103 9.8277 22.5 10.4424 22.5 11.0833V23.1667C22.5 23.8076 22.2103 24.4223 21.6945 24.8755C21.1788 25.3287 20.4793 25.5833 19.75 25.5833H3.25C2.52065 25.5833 1.82118 25.3287 1.30546 24.8755C0.789731 24.4223 0.5 23.8076 0.5 23.1667V11.0833C0.5 9.74208 1.72375 8.66666 3.25 8.66666H4.625V6.25C4.625 4.64765 5.34933 3.11092 6.63864 1.97789C7.92795 0.844859 9.67664 0.208328 11.5 0.208328C12.4028 0.208328 13.2968 0.364601 14.1309 0.668223C14.9651 0.971845 15.723 1.41687 16.3614 1.97789C16.9998 2.53891 17.5062 3.20494 17.8517 3.93795C18.1972 4.67096 18.375 5.45659 18.375 6.25V8.66666H19.75ZM11.5 2.62499C10.406 2.62499 9.35677 3.00691 8.58318 3.68673C7.8096 4.36655 7.375 5.28859 7.375 6.25V8.66666H15.625V6.25C15.625 5.28859 15.1904 4.36655 14.4168 3.68673C13.6432 3.00691 12.594 2.62499 11.5 2.62499Z" fill="black"/>
</svg>
