<svg width="84" height="84" viewBox="-1 0 90 84" fill="none" xmlns="http://www.w3.org/2000/svg">
    <ellipse cx="41.1" cy="39.5" rx="42" ry="39.7895" fill="#D9D9D9"/>
    <path d="M41.125 46.6974C45.6938 46.6974 50.0754 44.978 53.306 41.9174C56.5366 38.8568 58.3516 34.7058 58.3516 30.3775C58.3516 26.0492 56.5366 21.8981 53.306 18.8376C50.0754 15.777 45.6938 14.0576 41.125 14.0576C36.5562 14.0576 32.1746 15.777 28.944 18.8376C25.7134 21.8981 23.8984 26.0492 23.8984 30.3775C23.8984 34.7058 25.7134 38.8568 28.944 41.9174C32.1746 44.978 36.5562 46.6974 41.125 46.6974ZM20.207 51.3602C17.9226 51.3602 15.7318 52.2199 14.1165 53.7502C12.5012 55.2805 11.5938 57.356 11.5938 59.5202V60.6859C11.5938 66.2649 15.3418 70.9837 20.6623 74.1918C26.0124 77.4184 33.2549 79.3372 41.125 79.3372C48.9951 79.3372 56.2352 77.4184 61.5877 74.1918C66.9082 70.9837 70.6562 66.2649 70.6562 60.6859V59.5202C70.6562 57.356 69.7488 55.2805 68.1335 53.7502C66.5182 52.2199 64.3274 51.3602 62.043 51.3602H20.207Z" fill="black"/>
    </svg>
    