<svg width="14" height="24" viewBox="0 0 14 24" fill="none" xmlns="http://www.w3.org/2000/svg">
<path d="M6.5758 3.687C6.52317 3.59153 6.48203 3.47923 6.45472 3.3565C6.42741 3.23377 6.41447 3.10302 6.41664 2.97172C6.4188 2.84042 6.43603 2.71113 6.46735 2.59125C6.49866 2.47136 6.54344 2.36322 6.59913 2.273C6.65482 2.18279 6.72033 2.11226 6.79193 2.06544C6.86352 2.01863 6.93979 1.99644 7.01638 2.00016C7.09297 2.00387 7.16839 2.03341 7.23832 2.08709C7.30826 2.14077 7.37134 2.21753 7.42396 2.313L12.3823 11.313C12.4847 11.4987 12.5417 11.7445 12.5417 12C12.5417 12.2555 12.4847 12.5013 12.3823 12.687L7.42396 21.688C7.37168 21.7856 7.30862 21.8643 7.23843 21.9198C7.16824 21.9752 7.09232 22.0062 7.01509 22.0109C6.93786 22.0156 6.86086 21.9939 6.78855 21.9472C6.71624 21.9004 6.65007 21.8295 6.59388 21.7386C6.5377 21.6476 6.49261 21.5384 6.46125 21.4173C6.42988 21.2963 6.41287 21.1657 6.41118 21.0333C6.4095 20.9008 6.42319 20.7691 6.45145 20.6458C6.4797 20.5225 6.52197 20.4101 6.5758 20.315L11.1561 12L6.5758 3.687Z" fill="black"/>
</svg>
