<svg width="36" height="36" viewBox="0 0 36 36" fill="none" xmlns="http://www.w3.org/2000/svg">
<path fill-rule="evenodd" clip-rule="evenodd" d="M29.851 10.25C30.593 11.069 30.366 12.326 29.461 12.96L24.589 16.378C23.685 17.012 22.449 16.756 21.556 16.108C20.5509 15.3761 19.3443 14.9723 18.101 14.952C16.8578 14.9315 15.6385 15.2947 14.609 15.992C13.694 16.611 12.451 16.826 11.569 16.162L6.81203 12.584C5.93003 11.92 5.74403 10.655 6.51303 9.86201C8.03584 8.29156 9.86451 7.05005 11.8861 6.21421C13.9076 5.37836 16.0791 4.96592 18.2663 5.00237C20.4535 5.03883 22.61 5.52341 24.6026 6.42616C26.5951 7.32892 28.3814 8.62968 29.851 10.25ZM28.196 11.407C26.9139 10.0444 25.3717 8.95265 23.6605 8.19619C21.9492 7.43974 20.1038 7.03395 18.2331 7.00282C16.3624 6.97168 14.5044 7.31582 12.7689 8.01491C11.0335 8.714 9.45579 9.75384 8.12903 11.073L12.767 14.561C12.8096 14.5711 12.8537 14.5732 12.897 14.567C13.054 14.553 13.274 14.481 13.487 14.337C14.9002 13.3796 16.5812 12.8963 18.287 12.957C18.3262 12.8752 18.3763 12.7992 18.436 12.731L21.182 9.57301C21.356 9.37277 21.6024 9.24985 21.867 9.23128C22.1316 9.21272 22.3928 9.30003 22.593 9.47401C22.7933 9.64799 22.9162 9.89439 22.9348 10.159C22.9533 10.4236 22.866 10.6848 22.692 10.885L20.537 13.363C21.3223 13.6235 22.0627 14.0037 22.732 14.49C22.94 14.641 23.157 14.72 23.314 14.74C23.39 14.75 23.43 14.743 23.444 14.739L28.196 11.407ZM23.453 14.736L23.444 14.739C23.448 14.736 23.452 14.735 23.453 14.736ZM12.759 14.558C12.759 14.558 12.762 14.558 12.767 14.561L12.759 14.558Z" fill="black"/>
<path fill-rule="evenodd" clip-rule="evenodd" d="M30.216 36C31.2385 36 32.2222 35.6085 32.965 34.9059C33.7078 34.2033 34.1533 33.2429 34.21 32.222L35.766 4.222C35.7962 3.67884 35.7153 3.13523 35.5282 2.62442C35.3412 2.1136 35.0519 1.64631 34.678 1.25112C34.3042 0.855936 33.8536 0.541158 33.354 0.326038C32.8543 0.110918 32.316 -2.24707e-05 31.772 3.41387e-09H4.22805C3.68413 0.00011351 3.14596 0.111154 2.64642 0.326334C2.14688 0.541515 1.69648 0.856313 1.32274 1.25149C0.949001 1.64666 0.659783 2.1139 0.472765 2.62465C0.285748 3.1354 0.20486 3.67893 0.235047 4.222L1.79005 32.222C1.84679 33.2429 2.29233 34.2033 3.03512 34.9059C3.77792 35.6085 4.76158 36 5.78405 36H30.216ZM5.78405 34H30.216C30.7274 34 31.2194 33.8041 31.5908 33.4526C31.9623 33.1011 32.1849 32.6206 32.213 32.11L33.769 4.11C33.784 3.8385 33.7434 3.56681 33.6498 3.31152C33.5562 3.05623 33.4116 2.8227 33.2246 2.62522C33.0377 2.42773 32.8125 2.27043 32.5628 2.16294C32.313 2.05544 32.044 2 31.772 2H4.22805C3.95614 2 3.68708 2.05544 3.43733 2.16294C3.18757 2.27043 2.96235 2.42773 2.77545 2.62522C2.58854 2.8227 2.44386 3.05623 2.35026 3.31152C2.25666 3.56681 2.21609 3.8385 2.23105 4.11L3.78705 32.11C3.81517 32.6206 4.03783 33.1011 4.40926 33.4526C4.78068 33.8041 5.27265 34 5.78405 34Z" fill="black"/>
</svg>
