<svg width="30" height="30" viewBox="0 0 30 30" fill="none" xmlns="http://www.w3.org/2000/svg">
<path d="M15 15C12.9375 15 11.1719 14.2656 9.70312 12.7969C8.23437 11.3281 7.5 9.5625 7.5 7.5C7.5 5.4375 8.23437 3.67188 9.70312 2.20313C11.1719 0.734375 12.9375 0 15 0C17.0625 0 18.8281 0.734375 20.2969 2.20313C21.7656 3.67188 22.5 5.4375 22.5 7.5C22.5 9.5625 21.7656 11.3281 20.2969 12.7969C18.8281 14.2656 17.0625 15 15 15ZM0 30V24.75C0 23.6875 0.27375 22.7112 0.82125 21.8212C1.36875 20.9312 2.095 20.2512 3 19.7812C4.9375 18.8125 6.90625 18.0862 8.90625 17.6025C10.9062 17.1187 12.9375 16.8762 15 16.875C17.0625 16.8738 19.0937 17.1162 21.0937 17.6025C23.0937 18.0887 25.0625 18.815 27 19.7812C27.9062 20.25 28.6331 20.93 29.1806 21.8212C29.7281 22.7125 30.0012 23.6888 30 24.75V30H0Z" fill="black"/>
</svg>