<svg width="30" height="30" viewBox="0 0 30 30" fill="none" xmlns="http://www.w3.org/2000/svg">
<path d="M15 15C12.9375 15 11.1719 14.2656 9.70312 12.7969C8.23437 11.3281 7.5 9.5625 7.5 7.5C7.5 5.4375 8.23437 3.67188 9.70312 2.20313C11.1719 0.734375 12.9375 0 15 0C17.0625 0 18.8281 0.734375 20.2969 2.20313C21.7656 3.67188 22.5 5.4375 22.5 7.5C22.5 9.5625 21.7656 11.3281 20.2969 12.7969C18.8281 14.2656 17.0625 15 15 15ZM0 30V24.75C0 23.6875 0.27375 22.7112 0.82125 21.8212C1.36875 20.9312 2.095 20.2513 3 19.7812C4.9375 18.8125 6.90625 18.0862 8.90625 17.6025C10.9062 17.1187 12.9375 16.8762 15 16.875C17.0625 16.8738 19.0937 17.1162 21.0937 17.6025C23.0937 18.0887 25.0625 18.815 27 19.7812C27.9062 20.25 28.6331 20.93 29.1806 21.8212C29.7281 22.7125 30.0012 23.6888 30 24.75V30H0ZM3.75 26.25H26.25V24.75C26.25 24.4063 26.1644 24.0938 25.9931 23.8125C25.8219 23.5313 25.595 23.3125 25.3125 23.1562C23.625 22.3125 21.9219 21.68 20.2031 21.2588C18.4844 20.8375 16.75 20.6262 15 20.625C13.25 20.6238 11.5156 20.835 9.79687 21.2588C8.07812 21.6825 6.375 22.315 4.6875 23.1562C4.40625 23.3125 4.17937 23.5313 4.00687 23.8125C3.83437 24.0938 3.74875 24.4063 3.75 24.75V26.25ZM15 11.25C16.0312 11.25 16.9144 10.8831 17.6494 10.1494C18.3844 9.41563 18.7512 8.5325 18.75 7.5C18.7487 6.4675 18.3819 5.585 17.6494 4.8525C16.9169 4.12 16.0337 3.7525 15 3.75C13.9662 3.7475 13.0837 4.115 12.3525 4.8525C11.6212 5.59 11.2537 6.4725 11.25 7.5C11.2462 8.5275 11.6137 9.41063 12.3525 10.1494C13.0912 10.8881 13.9737 11.255 15 11.25Z" fill="black"/>
</svg>
