<svg width="144" height="152" viewBox="0 0 144 152" fill="none" xmlns="http://www.w3.org/2000/svg">
    <circle cx="72" cy="72" r="72" fill="white"/>
    <path d="M72 84.5C79.8902 84.5 87.4572 81.3887 93.0364 75.8505C98.6156 70.3123 101.75 62.8009 101.75 54.9688C101.75 47.1366 98.6156 39.6252 93.0364 34.087C87.4572 28.5488 79.8902 25.4375 72 25.4375C64.1098 25.4375 56.5428 28.5488 50.9636 34.087C45.3844 39.6252 42.25 47.1366 42.25 54.9688C42.25 62.8009 45.3844 70.3123 50.9636 75.8505C56.5428 81.3887 64.1098 84.5 72 84.5ZM35.875 92.9375C31.9299 92.9375 28.1464 94.4932 25.3568 97.2622C22.5672 100.031 21 103.787 21 107.703V109.812C21 119.908 27.4728 128.447 36.6612 134.252C45.9007 140.09 58.4085 143.562 72 143.562C85.5915 143.562 98.095 140.09 107.339 134.252C116.527 128.447 123 119.908 123 109.812V107.703C123 103.787 121.433 100.031 118.643 97.2622C115.854 94.4932 112.07 92.9375 108.125 92.9375H35.875Z" fill="black"/>
</svg>
    
